<svg xmlns="http://www.w3.org/2000/svg" width="256" height="256" viewBox="0 0 24 24" fill="#000000"><path d="m12.797 10.916l4.187-4.183l-1.586-1.59L12 8.537L8.61 5.143L7.024 6.729l4.183 4.187a1.117 1.117 0 0 0 1.59 0m6.06 4.474l-3.39-3.394l3.386-3.39l-1.586-1.586l-4.183 4.183a1.12 1.12 0 0 0 0 1.586l4.183 4.187zM12 15.463l3.385 3.394l1.59-1.586l-4.182-4.187a1.12 1.12 0 0 0-1.59 0l-4.188 4.183l1.586 1.59zm-1.085-2.666a1.117 1.117 0 0 0 0-1.586L6.733 7.024L5.143 8.61l3.394 3.394l-3.394 3.39l1.585 1.586z"/></svg>